<svg width="24" height="24" viewBox="0 0 24 24" fill="none" xmlns="http://www.w3.org/2000/svg">
<g clip-path="url(#clip0_2848_4888)">
<path d="M13 7C13 8.06087 12.5786 9.07828 11.8284 9.82843C11.0783 10.5786 10.0609 11 9 11C7.93913 11 6.92172 10.5786 6.17157 9.82843C5.42143 9.07828 5 8.06087 5 7C5 5.93913 5.42143 4.92172 6.17157 4.17157C6.92172 3.42143 7.93913 3 9 3C10.0609 3 11.0783 3.42143 11.8284 4.17157C12.5786 4.92172 13 5.93913 13 7V7ZM9 14C7.14349 14 5.36301 14.7375 4.05025 16.0503C2.7375 17.363 2 19.1435 2 21H16C16 19.1435 15.2625 17.363 13.9497 16.0503C12.637 14.7375 10.8565 14 9 14V14Z" stroke="#4B164C" stroke-width="2" stroke-linecap="round" stroke-linejoin="round"/>
<path d="M19 8V14M16 11H22H16Z" stroke="#4B164C" stroke-width="2" stroke-linecap="round" stroke-linejoin="round"/>
</g>
<defs>
<clipPath id="clip0_2848_4888">
<rect width="24" height="24" fill="white"/>
</clipPath>
</defs>
</svg>
