<svg width="24" height="24" viewBox="0 0 24 24" fill="none" xmlns="http://www.w3.org/2000/svg">
<path fill-rule="evenodd" clip-rule="evenodd" d="M12 21.6C14.5461 21.6 16.9879 20.5886 18.7882 18.7882C20.5886 16.9879 21.6 14.5461 21.6 12C21.6 9.45392 20.5886 7.01212 18.7882 5.21177C16.9879 3.41143 14.5461 2.4 12 2.4C9.45392 2.4 7.01212 3.41143 5.21178 5.21177C3.41143 7.01212 2.4 9.45392 2.4 12C2.4 14.5461 3.41143 16.9879 5.21178 18.7882C7.01212 20.5886 9.45392 21.6 12 21.6V21.6ZM16.4484 10.4484C16.667 10.2221 16.7879 9.91895 16.7852 9.60432C16.7825 9.28968 16.6563 8.98871 16.4338 8.76622C16.2113 8.54373 15.9103 8.41752 15.5957 8.41479C15.281 8.41206 14.9779 8.53301 14.7516 8.7516L10.8 12.7032L9.2484 11.1516C9.02208 10.933 8.71896 10.8121 8.40432 10.8148C8.08968 10.8175 7.78871 10.9437 7.56622 11.1662C7.34373 11.3887 7.21753 11.6897 7.21479 12.0043C7.21206 12.319 7.33301 12.6221 7.5516 12.8484L9.9516 15.2484C10.1766 15.4734 10.4818 15.5997 10.8 15.5997C11.1182 15.5997 11.4234 15.4734 11.6484 15.2484L16.4484 10.4484V10.4484Z" fill="#4B164C"/>
</svg>
