<svg width="24" height="24" viewBox="0 0 24 24" fill="none" xmlns="http://www.w3.org/2000/svg">
<path fill-rule="evenodd" clip-rule="evenodd" d="M5.15148 5.15164C5.37651 4.92667 5.68168 4.8003 5.99988 4.8003C6.31807 4.8003 6.62324 4.92667 6.84828 5.15164L11.9999 10.3032L17.1515 5.15164C17.2622 5.03703 17.3946 4.94561 17.541 4.88272C17.6874 4.81983 17.8449 4.78672 18.0042 4.78534C18.1635 4.78395 18.3215 4.81432 18.469 4.87465C18.6165 4.93499 18.7505 5.02409 18.8632 5.13677C18.9758 5.24944 19.0649 5.38342 19.1253 5.53089C19.1856 5.67837 19.216 5.83639 19.2146 5.99572C19.2132 6.15506 19.1801 6.31252 19.1172 6.45892C19.0543 6.60533 18.9629 6.73774 18.8483 6.84844L13.6967 12L18.8483 17.1516C19.0669 17.378 19.1878 17.6811 19.1851 17.9957C19.1824 18.3104 19.0561 18.6113 18.8337 18.8338C18.6112 19.0563 18.3102 19.1825 17.9956 19.1852C17.6809 19.188 17.3778 19.067 17.1515 18.8484L11.9999 13.6968L6.84828 18.8484C6.62195 19.067 6.31883 19.188 6.00419 19.1852C5.68956 19.1825 5.38858 19.0563 5.16609 18.8338C4.9436 18.6113 4.8174 18.3104 4.81467 17.9957C4.81193 17.6811 4.93289 17.378 5.15148 17.1516L10.3031 12L5.15148 6.84844C4.92651 6.62341 4.80013 6.31824 4.80013 6.00004C4.80013 5.68184 4.92651 5.37667 5.15148 5.15164V5.15164Z" fill="#4B164C"/>
</svg>
