<svg width="24" height="24" viewBox="0 0 24 24" fill="none" xmlns="http://www.w3.org/2000/svg">
<g clip-path="url(#clip0_2848_4892)">
<path d="M21.0002 3L14.5002 21C14.4563 21.0957 14.3858 21.1769 14.2972 21.2338C14.2086 21.2906 14.1055 21.3209 14.0002 21.3209C13.8948 21.3209 13.7917 21.2906 13.7031 21.2338C13.6145 21.1769 13.544 21.0957 13.5002 21L10.0002 14L3.00016 10.5C2.90442 10.4561 2.82329 10.3857 2.76641 10.2971C2.70953 10.2084 2.67929 10.1053 2.67929 10C2.67929 9.89469 2.70953 9.79158 2.76641 9.70295C2.82329 9.61432 2.90442 9.54388 3.00016 9.5L21.0002 3Z" stroke="#4B164C" stroke-width="2" stroke-linecap="round" stroke-linejoin="round"/>
</g>
<defs>
<clipPath id="clip0_2848_4892">
<rect width="24" height="24" fill="white"/>
</clipPath>
</defs>
</svg>
