<svg width="24" height="24" viewBox="0 0 24 24" fill="none" xmlns="http://www.w3.org/2000/svg">
<path d="M12 3L4.00003 10V20C4.00003 20.2652 4.12044 20.5196 4.33477 20.7071C4.54909 20.8946 4.83978 21 5.14289 21H8.57146C8.87456 21 9.16525 20.8946 9.37958 20.7071C9.59391 20.5196 9.71432 20.2652 9.71432 20V16C9.71432 15.7348 9.83472 15.4804 10.0491 15.2929C10.2634 15.1054 10.5541 15 10.8572 15H13.1429C13.446 15 13.7367 15.1054 13.951 15.2929C14.1653 15.4804 14.2857 15.7348 14.2857 16V20C14.2857 20.2652 14.4062 20.5196 14.6205 20.7071C14.8348 20.8946 15.1255 21 15.4286 21H18.8572C19.1603 21 19.451 20.8946 19.6653 20.7071C19.8796 20.5196 20 20.2652 20 20V10L12 3Z" fill="#4B164C"/>
</svg>
