<svg width="24" height="24" viewBox="0 0 24 24" fill="none" xmlns="http://www.w3.org/2000/svg">
<path d="M21.3333 5.33333H2.66665C2.31302 5.33333 1.97389 5.4738 1.72384 5.72385C1.47379 5.9739 1.33331 6.31304 1.33331 6.66666V17.3333C1.33331 17.687 1.47379 18.0261 1.72384 18.2761C1.97389 18.5262 2.31302 18.6667 2.66665 18.6667H21.3333C21.6869 18.6667 22.0261 18.5262 22.2761 18.2761C22.5262 18.0261 22.6666 17.687 22.6666 17.3333V6.66666C22.6666 6.31304 22.5262 5.9739 22.2761 5.72385C22.0261 5.4738 21.6869 5.33333 21.3333 5.33333V5.33333ZM21.3333 17.3333H2.66665V6.66666H21.3333V17.3333Z" fill="#4B164C"/>
<path d="M4.66669 8.66667H6.00002V10H4.66669V8.66667Z" fill="#4B164C"/>
<path d="M7.33331 8.66667H8.66665V10H7.33331V8.66667Z" fill="#4B164C"/>
<path d="M10 8.66667H11.3333V10H10V8.66667Z" fill="#4B164C"/>
<path d="M12.6667 8.66667H14V10H12.6667V8.66667Z" fill="#4B164C"/>
<path d="M15.3333 8.66667H16.6666V10H15.3333V8.66667Z" fill="#4B164C"/>
<path d="M18 8.66667H19.3333V10H18V8.66667Z" fill="#4B164C"/>
<path d="M4.66669 11.3333H6.00002V12.6667H4.66669V11.3333Z" fill="#4B164C"/>
<path d="M7.33331 11.3333H8.66665V12.6667H7.33331V11.3333Z" fill="#4B164C"/>
<path d="M10 11.3333H11.3333V12.6667H10V11.3333Z" fill="#4B164C"/>
<path d="M12.6667 11.3333H14V12.6667H12.6667V11.3333Z" fill="#4B164C"/>
<path d="M15.3333 11.3333H16.6666V12.6667H15.3333V11.3333Z" fill="#4B164C"/>
<path d="M18 11.3333H19.3333V12.6667H18V11.3333Z" fill="#4B164C"/>
<path d="M18 14.6667H19.2933V16H18V14.6667Z" fill="#4B164C"/>
<path d="M4.66669 14.6667H6.00002V16H4.66669V14.6667Z" fill="#4B164C"/>
<path d="M7.41998 14.6667H16.5866V16H7.41998V14.6667Z" fill="#4B164C"/>
</svg>
