<svg width="24" height="24" viewBox="0 0 24 24" fill="none" xmlns="http://www.w3.org/2000/svg">
<path d="M2.4 12.6C2.4 12.3636 2.44656 12.1296 2.53702 11.9112C2.62748 11.6928 2.76006 11.4944 2.92721 11.3272C3.09435 11.1601 3.29279 11.0275 3.51117 10.937C3.72956 10.8466 3.96362 10.8 4.2 10.8C4.43638 10.8 4.67045 10.8466 4.88883 10.937C5.10722 11.0275 5.30565 11.1601 5.47279 11.3272C5.63994 11.4944 5.77253 11.6928 5.86298 11.9112C5.95344 12.1296 6 12.3636 6 12.6V19.8C6 20.2774 5.81036 20.7352 5.47279 21.0728C5.13523 21.4104 4.67739 21.6 4.2 21.6C3.72261 21.6 3.26477 21.4104 2.92721 21.0728C2.58964 20.7352 2.4 20.2774 2.4 19.8V12.6ZM7.2 12.3996V18.9156C7.19979 19.3616 7.32387 19.7988 7.5583 20.1782C7.79273 20.5577 8.12824 20.8642 8.5272 21.0636L8.5872 21.0936C9.25306 21.4264 9.9872 21.5998 10.7316 21.6H17.2308C17.7858 21.6002 18.3238 21.4081 18.7531 21.0562C19.1823 20.7044 19.4764 20.2147 19.5852 19.6704L21.0252 12.4704C21.0948 12.1222 21.0863 11.763 21.0002 11.4185C20.9142 11.0741 20.7529 10.753 20.5278 10.4784C20.3027 10.2038 20.0195 9.98264 19.6986 9.83074C19.3777 9.67884 19.027 9.60004 18.672 9.6H14.4V4.8C14.4 4.16348 14.1471 3.55303 13.6971 3.10294C13.247 2.65286 12.6365 2.4 12 2.4C11.6817 2.4 11.3765 2.52643 11.1515 2.75147C10.9264 2.97652 10.8 3.28174 10.8 3.6V4.4004C10.8 5.43898 10.4631 6.44954 9.84 7.2804L8.16 9.5196C7.53686 10.3505 7.2 11.361 7.2 12.3996V12.3996Z" fill="#4B164C"/>
</svg>
