<svg width="24" height="24" viewBox="0 0 24 24" fill="none" xmlns="http://www.w3.org/2000/svg">
<g clip-path="url(#clip0_2848_4961)">
<rect opacity="0.01" width="24" height="24" fill="white"/>
<path d="M12 22.8001C13.3255 22.8001 14.4 21.7255 14.4 20.4C14.4 19.0746 13.3255 18.0001 12 18.0001C10.6745 18.0001 9.60001 19.0746 9.60001 20.4C9.60001 21.7255 10.6745 22.8001 12 22.8001Z" fill="#4B164C"/>
<path fill-rule="evenodd" clip-rule="evenodd" d="M12.0004 18.5844C10.9976 18.5844 10.1848 19.3973 10.1848 20.4C10.1848 21.4027 10.9976 22.2156 12.0004 22.2156C13.0031 22.2156 13.816 21.4027 13.816 20.4C13.816 19.3973 13.0031 18.5844 12.0004 18.5844ZM9 20.4001C9 18.7432 10.3431 17.4001 12 17.4001C13.6568 17.4001 15 18.7432 15 20.4001C15 22.0569 13.6568 23.4001 12 23.4001C10.3431 23.4001 9 22.0569 9 20.4001Z" fill="white"/>
<path fill-rule="evenodd" clip-rule="evenodd" d="M11.3998 13.1708H12.5998V19.1708H11.3998V13.1708Z" fill="#4B164C"/>
<path d="M12 13.8001C15.3137 13.8001 18 11.1138 18 7.80008C18 4.48637 15.3137 1.80007 12 1.80007C8.68629 1.80007 6 4.48637 6 7.80008C6 11.1138 8.68629 13.8001 12 13.8001Z" fill="#4B164C"/>
<path d="M12 9.60007C12.9941 9.60007 13.8 8.79414 13.8 7.80006C13.8 6.80595 12.9941 6.00007 12 6.00007C11.0059 6.00007 10.2 6.80595 10.2 7.80006C10.2 8.79414 11.0059 9.60007 12 9.60007Z" fill="white"/>
</g>
<defs>
<clipPath id="clip0_2848_4961">
<rect width="24" height="24" fill="white"/>
</clipPath>
</defs>
</svg>
