<svg width="24" height="24" viewBox="0 0 24 24" fill="none" xmlns="http://www.w3.org/2000/svg">
<path fill-rule="evenodd" clip-rule="evenodd" d="M3.80648 6.20633C4.70662 5.30647 5.9273 4.80095 7.20008 4.80095C8.47287 4.80095 9.69355 5.30647 10.5937 6.20633L12.0001 7.61153L13.4065 6.20633C13.8493 5.74788 14.3789 5.3822 14.9645 5.13064C15.5502 4.87908 16.18 4.74666 16.8174 4.74113C17.4547 4.73559 18.0868 4.85704 18.6767 5.09838C19.2666 5.33973 19.8025 5.69615 20.2532 6.14683C20.7039 6.59752 21.0603 7.13345 21.3016 7.72335C21.543 8.31325 21.6644 8.94531 21.6589 9.58265C21.6533 10.22 21.5209 10.8499 21.2694 11.4355C21.0178 12.0211 20.6521 12.5507 20.1937 12.9935L12.0001 21.1883L3.80648 12.9935C2.90662 12.0934 2.40111 10.8727 2.40111 9.59993C2.40111 8.32714 2.90662 7.10646 3.80648 6.20633V6.20633Z" fill="#4B164C"/>
</svg>
