<svg width="24" height="24" viewBox="0 0 24 24" fill="none" xmlns="http://www.w3.org/2000/svg">
<g clip-path="url(#clip0_2848_5057)">
<path d="M19.4999 13.572L11.9999 21L4.49993 13.572C4.00524 13.0906 3.61558 12.512 3.35548 11.8727C3.09539 11.2333 2.9705 10.547 2.98867 9.85696C3.00685 9.16694 3.1677 8.48816 3.46109 7.86336C3.75449 7.23856 4.17407 6.68128 4.69342 6.2266C5.21277 5.77193 5.82064 5.42971 6.47875 5.22151C7.13685 5.0133 7.83094 4.94361 8.5173 5.01683C9.20366 5.09004 9.86743 5.30458 10.4668 5.64693C11.0662 5.98928 11.5882 6.45202 11.9999 7.00602C12.4135 6.45605 12.9361 5.99735 13.535 5.65863C14.134 5.31991 14.7964 5.10847 15.4809 5.03754C16.1653 4.96661 16.857 5.03772 17.5127 5.24642C18.1684 5.45511 18.774 5.7969 19.2915 6.25039C19.809 6.70388 20.2274 7.25931 20.5204 7.88192C20.8133 8.50453 20.9747 9.18091 20.9942 9.86873C21.0138 10.5566 20.8912 11.241 20.6341 11.8793C20.3769 12.5175 19.9908 13.0958 19.4999 13.578" stroke="#4B164C" stroke-width="2" stroke-linecap="round" stroke-linejoin="round"/>
</g>
<defs>
<clipPath id="clip0_2848_5057">
<rect width="24" height="24" fill="white"/>
</clipPath>
</defs>
</svg>
