<svg width="24" height="24" viewBox="0 0 24 24" fill="none" xmlns="http://www.w3.org/2000/svg">
<path fill-rule="evenodd" clip-rule="evenodd" d="M3.45953 5.4255C4.39434 4.55012 5.66206 4.05835 6.98389 4.05835C8.30572 4.05835 9.57343 4.55012 10.5082 5.4255L11.9688 6.79248L13.4294 5.4255C13.8893 4.97952 14.4393 4.62379 15.0475 4.37907C15.6557 4.13435 16.3098 4.00554 16.9717 4.00015C17.6336 3.99477 18.29 4.11291 18.9027 4.34769C19.5153 4.58248 20.0719 4.9292 20.5399 5.36762C21.008 5.80605 21.3781 6.3274 21.6288 6.90126C21.8794 7.47511 22.0056 8.08998 21.9998 8.70999C21.9941 9.32999 21.8565 9.94272 21.5953 10.5124C21.334 11.0821 20.9543 11.5973 20.4782 12.0281L11.9688 20L3.45953 12.0281C2.52499 11.1524 2 9.96496 2 8.72679C2 7.48863 2.52499 6.30115 3.45953 5.4255V5.4255Z" fill="#4B164C"/>
<circle cx="19" cy="7" r="4.25" fill="#DD88CF" stroke="#FDF7FD" stroke-width="1.5"/>
</svg>
