<svg width="65" height="64" viewBox="0 0 65 64" fill="none" xmlns="http://www.w3.org/2000/svg">
<path fill-rule="evenodd" clip-rule="evenodd" d="M30.2561 41.3126C29.4278 40.225 28.3677 39.1667 27.1132 38.224C25.8897 37.3046 24.6122 36.5934 23.367 36.1014L21.7411 38.2651C22.9863 38.7571 24.2638 39.4683 25.4872 40.3877C26.7417 41.3304 27.8018 42.3887 28.6301 43.4763L30.2561 41.3126Z" fill="#242E22"/>
<path fill-rule="evenodd" clip-rule="evenodd" d="M31.6961 33.3344L28.6677 37.3643C28.6677 37.3643 28.6677 37.3643 28.6677 37.3643L31.7089 33.3173C31.7047 33.323 31.7004 33.3287 31.6961 33.3344ZM30.7446 25.8978L23.4358 35.6237C21.0297 35.1583 18.6913 35.1681 16.5959 35.6559C16.7317 35.3942 16.8909 35.1402 17.0739 34.8967L23.1014 26.8758C24.8849 24.5024 28.2547 24.0242 30.6281 25.8078C30.6675 25.8373 30.7063 25.8674 30.7446 25.8978Z" fill="url(#paint0_linear_862_3485)"/>
<path fill-rule="evenodd" clip-rule="evenodd" d="M29.856 32.2529L26.8229 36.2891L29.8513 32.2592C29.8529 32.2571 29.8545 32.255 29.856 32.2529ZM29.9503 40.8302C31.0667 43.0119 31.7078 45.2607 31.8221 47.4091C32.0357 47.2059 32.2354 46.9824 32.4184 46.7389L38.446 38.7179C40.2295 36.3446 39.7513 32.9747 37.378 31.1912C37.3386 31.1616 37.2989 31.1327 37.259 31.1043L29.9503 40.8302Z" fill="url(#paint1_linear_862_3485)"/>
<path fill-rule="evenodd" clip-rule="evenodd" d="M29.6185 25.6358C27.9188 27.0014 26.1616 28.7075 24.4803 30.679C23.1883 32.1941 22.054 33.7337 21.1022 35.2316C21.9455 35.2721 22.8078 35.3806 23.68 35.5567L30.523 26.2265C30.4868 26.197 30.4501 26.168 30.4129 26.1393C30.1588 25.9438 29.8929 25.7761 29.6185 25.6358ZM34.7564 38.8668C33.584 40.6966 32.3373 42.3529 31.0872 43.7807C30.7866 42.7166 30.368 41.648 29.8373 40.595L36.6804 31.2648C36.7181 31.2923 36.7556 31.3203 36.7928 31.3489C37.2937 31.7346 37.7059 32.1959 38.0254 32.7054C37.2012 34.6698 36.101 36.768 34.7564 38.8668Z" fill="#421116"/>
<path fill-rule="evenodd" clip-rule="evenodd" d="M22.0411 37.2175C23.8152 37.8645 25.6074 38.8889 27.2628 40.2745C28.1411 41.0096 28.9261 41.8005 29.6113 42.6249C32.2284 41.1393 35.4333 37.8978 38.2094 33.6725C41.5612 28.5709 43.3401 23.4773 43.0142 20.5668C42.9994 19.6363 42.737 18.9018 42.2 18.4326C39.9582 16.4738 33.7806 19.8809 28.402 26.0424C24.9014 30.0527 22.6019 34.2414 22.0411 37.2175Z" fill="url(#paint2_linear_862_3485)"/>
<path fill-rule="evenodd" clip-rule="evenodd" d="M37.7285 34.3885C37.8901 34.1531 38.0504 33.9144 38.2094 33.6724C38.6324 33.0286 39.0304 32.3849 39.4022 31.7457C38.022 30.4401 36.477 29.1338 34.7984 27.8724C33.1188 26.6102 31.4331 25.489 29.7942 24.526C29.3263 25.0103 28.8613 25.5163 28.402 26.0424C28.1646 26.3143 27.9327 26.5871 27.7066 26.8603C29.4181 27.853 31.1836 29.0202 32.9425 30.342C34.6953 31.6591 36.3025 33.0254 37.7285 34.3885ZM25.289 30.1099C25.8341 29.2862 26.4386 28.45 27.0978 27.6136C28.941 28.6572 30.8535 29.9072 32.7581 31.3385C34.3853 32.5613 35.887 33.8264 37.2348 35.092C36.6147 35.9563 35.9799 36.7702 35.3409 37.526C34.003 36.2722 32.5142 35.0194 30.9023 33.8081C29.0138 32.389 27.1177 31.148 25.289 30.1099Z" fill="url(#paint3_radial_862_3485)"/>
<ellipse cx="31.9512" cy="32.0185" rx="1.16032" ry="3.8919" transform="rotate(36.924 31.9512 32.0185)" fill="url(#paint4_linear_862_3485)"/>
<path d="M32.8901 32.7005C31.9645 33.9322 31.024 35.1338 30.1223 36.2367C29.2205 37.3396 28.3752 38.3222 27.6346 39.1284C26.894 39.9346 26.2726 40.5486 25.8058 40.9353C25.3391 41.3221 25.0362 41.4741 24.9144 41.3825C24.7925 41.291 24.8542 40.9577 25.0959 40.4018C25.3375 39.8459 25.7544 39.0782 26.3228 38.1426C26.8911 37.2069 27.5998 36.1216 28.4083 34.9487C29.2168 33.7757 30.1093 32.5381 31.0349 31.3064L31.9625 32.0035L32.8901 32.7005Z" fill="url(#paint5_linear_862_3485)"/>
<g filter="url(#filter0_d_862_3485)">
<circle cx="38.654" cy="22.9479" r="3.28757" transform="rotate(36.924 38.654 22.9479)" fill="#C4C4C4"/>
<g filter="url(#filter1_i_862_3485)">
<circle cx="38.654" cy="22.948" r="1.74048" transform="rotate(36.924 38.654 22.948)" fill="#6CCAD7"/>
</g>
</g>
<defs>
<filter id="filter0_d_862_3485" x="31.3663" y="19.6602" width="14.5755" height="14.5756" filterUnits="userSpaceOnUse" color-interpolation-filters="sRGB">
<feFlood flood-opacity="0" result="BackgroundImageFix"/>
<feColorMatrix in="SourceAlpha" type="matrix" values="0 0 0 0 0 0 0 0 0 0 0 0 0 0 0 0 0 0 127 0" result="hardAlpha"/>
<feOffset dy="4"/>
<feGaussianBlur stdDeviation="2"/>
<feComposite in2="hardAlpha" operator="out"/>
<feColorMatrix type="matrix" values="0 0 0 0 0 0 0 0 0 0 0 0 0 0 0 0 0 0 0.25 0"/>
<feBlend mode="normal" in2="BackgroundImageFix" result="effect1_dropShadow_862_3485"/>
<feBlend mode="normal" in="SourceGraphic" in2="effect1_dropShadow_862_3485" result="shape"/>
</filter>
<filter id="filter1_i_862_3485" x="36.9135" y="21.2074" width="3.48114" height="7.4812" filterUnits="userSpaceOnUse" color-interpolation-filters="sRGB">
<feFlood flood-opacity="0" result="BackgroundImageFix"/>
<feBlend mode="normal" in="SourceGraphic" in2="BackgroundImageFix" result="shape"/>
<feColorMatrix in="SourceAlpha" type="matrix" values="0 0 0 0 0 0 0 0 0 0 0 0 0 0 0 0 0 0 127 0" result="hardAlpha"/>
<feOffset dy="4"/>
<feGaussianBlur stdDeviation="2"/>
<feComposite in2="hardAlpha" operator="arithmetic" k2="-1" k3="1"/>
<feColorMatrix type="matrix" values="0 0 0 0 0 0 0 0 0 0 0 0 0 0 0 0 0 0 0.25 0"/>
<feBlend mode="normal" in2="shape" result="effect1_innerShadow_862_3485"/>
</filter>
<linearGradient id="paint0_linear_862_3485" x1="21.4338" y1="29.0949" x2="30.0284" y2="35.5536" gradientUnits="userSpaceOnUse">
<stop stop-color="#BC1C2B"/>
<stop offset="1" stop-color="#931420"/>
</linearGradient>
<linearGradient id="paint1_linear_862_3485" x1="36.7783" y1="40.9371" x2="29.9269" y2="39.2815" gradientUnits="userSpaceOnUse">
<stop stop-color="#BC1B2A"/>
<stop offset="1" stop-color="#931420"/>
</linearGradient>
<linearGradient id="paint2_linear_862_3485" x1="35.7537" y1="19.8413" x2="36.1003" y2="35.0998" gradientUnits="userSpaceOnUse">
<stop stop-color="#DA3329"/>
<stop offset="0.5125" stop-color="#BA1E26"/>
<stop offset="1" stop-color="#A01C23"/>
</linearGradient>
<radialGradient id="paint3_radial_862_3485" cx="0" cy="0" r="1" gradientUnits="userSpaceOnUse" gradientTransform="translate(32.3722 31.0641) rotate(67.7534) scale(7.08241 6.93791)">
<stop stop-color="white"/>
<stop offset="0.408333" stop-color="white"/>
<stop offset="0.647916" stop-color="white"/>
<stop offset="1" stop-color="#E3E3E3"/>
</radialGradient>
<linearGradient id="paint4_linear_862_3485" x1="28.7018" y1="30.8848" x2="29.3848" y2="34.2554" gradientUnits="userSpaceOnUse">
<stop stop-color="#D84444"/>
<stop offset="1" stop-color="#960202"/>
</linearGradient>
<linearGradient id="paint5_linear_862_3485" x1="31.4179" y1="27.3193" x2="30.5521" y2="36.3045" gradientUnits="userSpaceOnUse">
<stop stop-color="#D84444"/>
<stop offset="1" stop-color="#960202"/>
</linearGradient>
</defs>
</svg>
