<svg width="24" height="24" viewBox="0 0 24 24" fill="none" xmlns="http://www.w3.org/2000/svg">
<g clip-path="url(#clip0_2848_4909)">
<g clip-path="url(#clip1_2848_4909)">
<path d="M17.5603 21C17.4004 21.0007 17.2426 20.9629 17.1003 20.89L12.0003 18.22L6.90031 20.89C6.73471 20.9771 6.54799 21.016 6.36139 21.0022C6.17479 20.9885 5.99579 20.9226 5.84474 20.8122C5.69369 20.7018 5.57665 20.5512 5.50693 20.3776C5.4372 20.2039 5.41759 20.0142 5.45031 19.83L6.45031 14.2L2.33031 10.2C2.20177 10.0717 2.11058 9.91089 2.06654 9.73471C2.0225 9.55854 2.02726 9.37369 2.08031 9.20002C2.13827 9.02229 2.24489 8.86437 2.38806 8.74417C2.53124 8.62398 2.70523 8.54632 2.89031 8.52002L8.59031 7.69002L11.1003 2.56002C11.1822 2.39094 11.31 2.24836 11.4692 2.14859C11.6284 2.04882 11.8125 1.9959 12.0003 1.9959C12.1882 1.9959 12.3722 2.04882 12.5314 2.14859C12.6906 2.24836 12.8184 2.39094 12.9003 2.56002L15.4403 7.68002L21.1403 8.51002C21.3254 8.53632 21.4994 8.61398 21.6426 8.73418C21.7857 8.85437 21.8924 9.01229 21.9503 9.19002C22.0034 9.36369 22.0081 9.54854 21.9641 9.72471C21.92 9.90089 21.8289 10.0617 21.7003 10.19L17.5803 14.19L18.5803 19.82C18.616 20.0075 18.5973 20.2013 18.5264 20.3785C18.4556 20.5557 18.3355 20.7089 18.1803 20.82C17.9992 20.9469 17.7812 21.0102 17.5603 21V21Z" fill="#4B164C"/>
</g>
</g>
<defs>
<clipPath id="clip0_2848_4909">
<rect width="24" height="24" fill="white"/>
</clipPath>
<clipPath id="clip1_2848_4909">
<rect width="24" height="24" fill="white"/>
</clipPath>
</defs>
</svg>
