<svg width="24" height="24" viewBox="0 0 24 24" fill="none" xmlns="http://www.w3.org/2000/svg">
<path d="M18.9998 11C18.9998 12.8565 18.2623 14.637 16.9496 15.9498C15.6368 17.2625 13.8563 18 11.9998 18M11.9998 18C10.1433 18 8.36282 17.2625 7.05007 15.9498C5.73731 14.637 4.99982 12.8565 4.99982 11M11.9998 18V22M11.9998 22H7.99982M11.9998 22H15.9998M11.9998 14C11.2042 14 10.4411 13.684 9.8785 13.1213C9.31589 12.5587 8.99982 11.7957 8.99982 11V5.00002C8.99982 4.20437 9.31589 3.44131 9.8785 2.8787C10.4411 2.31609 11.2042 2.00002 11.9998 2.00002C12.7955 2.00002 13.5585 2.31609 14.1211 2.8787C14.6837 3.44131 14.9998 4.20437 14.9998 5.00002V11C14.9998 11.7957 14.6837 12.5587 14.1211 13.1213C13.5585 13.684 12.7955 14 11.9998 14Z" stroke="#4B164C" stroke-width="2" stroke-linecap="round" stroke-linejoin="round"/>
</svg>
