<svg width="24" height="24" viewBox="0 0 24 24" fill="none" xmlns="http://www.w3.org/2000/svg">
<path fill-rule="evenodd" clip-rule="evenodd" d="M18.75 9.24998C18.2415 9.75851 17.9872 10.0128 17.6814 10.0692C17.5615 10.0913 17.4385 10.0913 17.3186 10.0692C17.0128 10.0128 16.7585 9.75851 16.25 9.24998L14.75 7.74998C14.2415 7.24145 13.9872 6.98719 13.9308 6.68137C13.9087 6.56145 13.9087 6.43851 13.9308 6.31859C13.9872 6.01277 14.2415 5.75851 14.75 5.24998V5.24998C15.2585 4.74145 15.5128 4.48719 15.8186 4.43078C15.9385 4.40866 16.0615 4.40866 16.1814 4.43078C16.4872 4.48719 16.7415 4.74145 17.25 5.24998L18.75 6.74998C19.2585 7.25851 19.5128 7.51277 19.5692 7.81859C19.5913 7.93851 19.5913 8.06145 19.5692 8.18137C19.5128 8.48719 19.2585 8.74145 18.75 9.24998V9.24998ZM6 20C5.05719 20 4.58579 20 4.29289 19.7071C4 19.4142 4 18.9428 4 18V16.8284C4 16.4197 4 16.2153 4.07612 16.0315C4.15224 15.8478 4.29676 15.7032 4.58579 15.4142L11.0858 8.91421C11.7525 8.24754 12.0858 7.91421 12.5 7.91421C12.9142 7.91421 13.2475 8.24754 13.9142 8.91421L15.0858 10.0858C15.7525 10.7524 16.0858 11.0858 16.0858 11.5C16.0858 11.9142 15.7525 12.2475 15.0858 12.9142L8.58579 19.4142C8.29676 19.7032 8.15224 19.8478 7.96847 19.9239C7.7847 20 7.58032 20 7.17157 20H6Z" fill="#4B164C"/>
</svg>
